<?xml version="1.0" encoding="UTF-8" standalone="no"?>
<svg
   xmlns:dc="http://purl.org/dc/elements/1.1/"
   xmlns:cc="http://creativecommons.org/ns#"
   xmlns:rdf="http://www.w3.org/1999/02/22-rdf-syntax-ns#"
   xmlns:svg="http://www.w3.org/2000/svg"
   xmlns="http://www.w3.org/2000/svg"
   xmlns:sodipodi="http://sodipodi.sourceforge.net/DTD/sodipodi-0.dtd"
   xmlns:inkscape="http://www.inkscape.org/namespaces/inkscape"
   width="2500"
   height="2500"
   viewBox="0 0 192.672 192.672"
   version="1.1"
   id="svg10"
   sodipodi:docname="neon-genesis-evangelion-logo-svg-vector.svg"
   inkscape:version="0.92.3 (2405546, 2018-03-11)">
  <metadata
     id="metadata16">
    <rdf:RDF>
      <cc:Work
         rdf:about="">
        <dc:format>image/svg+xml</dc:format>
        <dc:type
           rdf:resource="http://purl.org/dc/dcmitype/StillImage" />
      </cc:Work>
    </rdf:RDF>
  </metadata>
  <defs
     id="defs14" />
  <sodipodi:namedview
     pagecolor="#ffffff"
     bordercolor="#666666"
     borderopacity="1"
     objecttolerance="10"
     gridtolerance="10"
     guidetolerance="10"
     inkscape:pageopacity="0"
     inkscape:pageshadow="2"
     inkscape:window-width="1920"
     inkscape:window-height="1017"
     id="namedview12"
     showgrid="false"
     inkscape:zoom="0.13350176"
     inkscape:cx="-269.83373"
     inkscape:cy="1455.8097"
     inkscape:window-x="-8"
     inkscape:window-y="-8"
     inkscape:window-maximized="1"
     inkscape:current-layer="svg10" />
  <g
     id="g8"
     style="fill:#dcdde1;fill-opacity:1"
     transform="translate(0.49814981,1.3626218)">
    <path
       d="M 36.576,98.712 H 22.68 v -1.08 c 0,0.576 3.816,-0.864 4.248,-1.152 1.512,-1.152 1.44,-3.24 1.44,-4.968 v -19.224 -8.28 c 0,-3.384 -2.88,-4.392 -5.688,-4.392 v -1.08 h 14.184 c 0,0 18.144,23.04 18.432,23.4 -0.216,-0.216 0,-1.656 0,-2.016 0,-1.584 0.072,-3.168 0,-4.752 0,-3.024 0,-6.048 0.072,-9 0,-3.24 0,-5.976 -3.816,-6.48 -0.072,0 -2.016,-0.144 -2.016,-0.072 v -1.08 h 14.4 v 1.08 c 0,-0.216 -2.952,0.216 -3.312,0.288 -2.448,0.864 -2.592,3.744 -2.592,5.904 0.072,3.744 0.144,7.416 0.144,11.16 v 22.32 H 57.312 L 31.248,66.672 v 24.84 c 0,3.6 1.512,6.12 5.328,6.12 z m 42.696,37.944 v -0.576 -8.496 -13.968 c 0,-2.088 0.576,-5.256 -0.576,-7.128 -0.576,-0.792 -1.512,-1.152 -2.376,-1.296 -0.216,-0.072 -2.448,-0.288 -2.448,-0.216 v -1.008 h 9.72 c 4.032,0 8.064,-0.072 12.096,0.072 3.816,0.144 7.632,0.792 10.224,4.032 2.808,3.456 3.312,8.568 0.504,12.168 -1.656,2.088 -4.032,3.888 -6.552,4.68 0.36,-0.072 4.104,5.832 4.464,6.408 1.584,2.376 3.096,4.824 4.608,7.272 1.08,1.8 2.592,4.176 5.04,4.176 v 1.08 H 101.88 c -3.024,-4.608 -5.904,-9.216 -8.928,-13.824 -1.152,-1.8 -2.448,-4.392 -4.896,-4.392 0,4.32 -0.36,8.856 0.072,13.176 0.288,2.304 1.224,3.6 3.6,3.888 l 0.864,0.072 h 0.864 v 1.08 H 73.872 c 0,-1.296 0.36,-1.008 1.584,-1.152 1.008,-0.072 2.088,-0.216 2.88,-1.008 1.152,-1.224 0.936,-3.384 0.936,-5.04 z m 8.784,-30.528 v 17.28 c 3.744,0 7.488,-0.144 9.576,-3.672 1.944,-3.24 2.16,-7.992 -0.504,-10.944 -1.44,-1.728 -3.816,-2.664 -6.12,-2.664 z"
       id="path4"
       style="fill:#dcdde1;fill-opacity:1"
       inkscape:connector-curvature="0" />
    <path
       d="m 171.936,43.776 c -0.144,-0.432 -0.216,-1.008 -0.504,-1.296 -0.864,-0.792 -1.152,-1.8 -2.232,-2.52 -0.72,-0.432 -1.584,-0.576 -2.016,-1.44 -0.864,-1.656 -0.072,-3.024 -2.088,-4.176 -0.648,-0.36 -1.512,-0.432 -1.944,-1.08 -0.432,-0.648 -0.216,-1.584 -0.648,-2.232 -0.864,-1.224 -2.52,-2.016 -3.528,-3.024 -0.864,-0.792 -0.864,-2.16 -1.656,-2.952 -1.008,-1.008 -3.096,-0.432 -4.392,-0.504 -0.216,-1.584 -2.448,-2.088 -3.672,-2.376 -1.368,-0.288 -1.944,-1.584 -3.168,-2.304 -1.296,-0.72 -2.664,-0.432 -4.032,-0.432 -2.52,-0.072 -5.976,-0.648 -6.336,-3.744 0.864,-0.36 1.08,-1.008 1.728,-1.656 0.576,-0.576 1.008,-0.648 1.224,-1.512 0.216,-0.72 0,-1.512 0.144,-2.232 0.288,-1.584 1.44,-2.664 2.88,-3.384 C 140.472,4.32 137.088,5.76 135,4.464 c -0.864,-0.576 -1.584,-1.08 -2.736,-1.008 -1.152,0.144 -2.016,0.576 -3.24,0.432 -1.224,-0.072 -1.656,-0.72 -2.736,-1.008 -1.008,-0.216 -2.448,0.144 -3.24,0.648 -0.072,0 0,0.072 0,0.072 -1.584,1.44 -2.664,0.936 -4.32,0.072 -1.368,-0.792 -2.88,-0.792 -4.248,0 -1.224,0.792 -2.376,1.44 -3.888,1.008 -1.512,-0.432 -2.808,-1.008 -4.248,-0.144 -0.648,0.36 -1.008,0.936 -1.656,1.152 -1.368,0.36 -3.168,0.072 -4.608,0.216 -1.656,0.216 -3.312,0.504 -4.824,1.08 -3.456,1.296 -6.12,3.384 -8.136,6.48 -4.176,6.624 -1.44,15.264 -3.24,22.464 -1.224,5.04 -4.824,10.224 -10.44,10.44 C 69.552,46.512 66.456,43.92 64.152,41.04 61.416,37.728 58.968,34.2 56.736,30.528 55.08,27.648 53.28,24.408 52.632,21.096 L 52.416,20.088 45.936,26.64 75.24,58.536 H 64.728 v 1.08 c 0,-0.072 2.376,0.144 2.592,0.144 0.936,0.216 1.944,0.504 2.52,1.368 1.872,2.736 1.368,5.976 1.368,9.072 -0.072,4.248 -0.216,19.656 -0.792,24.336 -0.36,2.664 -3.312,3.168 -5.616,3.096 0,0.144 -0.072,1.08 -0.072,1.08 h 32.688 l 1.872,-13.104 h -1.08 c -0.144,0 -1.512,3.456 -1.656,3.744 -0.792,1.944 -2.088,3.456 -3.888,4.608 -3.6,2.376 -12.888,3.744 -12.888,-2.736 V 79.128 c 1.224,0.072 2.376,0.216 3.528,0.576 3.744,1.296 4.968,4.968 5.256,8.568 h 1.08 v -14.04 l 27.288,29.736 h -6.768 c 0,0.36 0,0.72 0.072,1.08 3.96,-0.072 4.536,5.04 5.76,7.776 2.736,6.192 4.896,12.6 7.488,18.792 1.8,4.392 3.528,8.784 5.256,13.176 h 1.296 l 7.632,-18.288 27.288,29.736 v -0.504 c 0.072,-1.368 -0.072,-2.664 -0.216,-4.032 -0.144,-2.232 0.432,-4.464 0.36,-6.696 -0.072,-2.232 -1.152,-3.888 -1.728,-5.976 -0.216,-1.152 0.072,-2.232 0.432,-3.312 0.72,-2.016 0.288,-3.816 0.072,-5.904 -0.288,-2.088 1.8,-3.24 1.44,-5.472 -0.144,-1.08 -0.72,-1.728 -0.648,-2.808 0.072,-1.008 0.216,-1.872 -0.072,-2.952 -0.288,-1.008 -0.864,-2.016 -0.864,-3.024 -0.072,-1.296 0.432,-2.376 0,-3.672 -0.504,-1.512 -0.72,-2.376 -0.432,-3.888 0.36,-1.872 0.864,-4.464 -0.648,-5.976 -0.792,-0.936 -1.368,-1.008 -1.584,-2.376 -0.144,-1.008 -0.144,-2.016 -0.216,-3.024 -0.072,-1.008 -0.216,-2.016 -0.648,-2.952 -0.432,-0.792 -1.224,-1.512 -1.656,-2.304 -0.72,-1.656 0.216,-3.528 -0.288,-5.256 -0.288,-0.864 -0.864,-1.584 -1.152,-2.448 -0.288,-0.864 -0.432,-1.8 -0.864,-2.664 -0.72,-1.368 -2.016,-1.656 -1.8,-3.456 0.216,-1.296 0.792,-2.16 -0.144,-3.384 -0.864,-1.08 -1.944,-1.44 -2.448,-2.736 -0.504,-1.368 -0.648,-2.232 -1.944,-3.024 -0.936,-0.72 -2.016,-1.512 -3.168,-1.656 -1.368,-0.144 -2.664,0.36 -3.528,-0.936 -0.648,-1.008 -0.576,-2.16 -1.944,-2.592 -1.152,-0.288 -2.592,0.288 -3.528,-0.576 -0.792,-0.72 -1.152,-1.728 -1.872,-2.52 -0.36,-0.432 -1.368,-1.008 -0.432,-1.584 1.008,-0.576 2.808,1.296 3.888,1.584 1.368,0.36 3.168,0.576 4.608,0.72 3.096,0.216 5.472,-2.232 8.496,-2.16 1.44,0.072 2.952,0.576 4.32,0.072 1.296,-0.576 1.8,-2.376 3.24,-2.664 1.584,-0.216 2.736,0.936 4.032,-0.648 0.936,-1.152 1.08,-2.592 2.304,-3.528 1.44,-1.08 3.096,-0.864 4.608,-1.584 1.224,-0.648 1.872,-2.304 2.736,-3.384 -0.72,-1.008 -1.224,-2.088 -1.728,-3.168 z M 79.776,76.752 V 74.88 67.392 c 0,-1.08 -0.144,-2.592 0.144,-3.816 l 7.776,8.496 c -1.368,3.312 -4.536,4.392 -7.92,4.68 z m 56.016,47.736 a 388.457,388.457 0 0 1 -2.808,6.768 c 0.144,-0.36 -0.864,-2.16 -1.008,-2.52 -1.44,-3.816 -2.952,-7.56 -4.464,-11.304 -0.432,-1.152 -0.936,-2.304 -1.368,-3.456 z M 23.76,141.192 23.688,141.048 c 0.216,-0.216 0.36,-0.432 0.504,-0.648 0.36,-0.864 -0.288,-1.584 -1.152,-1.656 -1.296,-0.144 -2.88,0.792 -3.456,1.872 a 1.15,1.15 0 0 0 0.504,1.656 c 0.432,0.216 1.296,0 1.44,-0.504 v -0.072 -0.072 l 0.216,-0.144 0.36,0.792 -1.8,0.864 c -0.72,-0.648 -1.44,-1.44 -1.224,-2.448 0.072,-0.72 0.648,-1.296 1.224,-1.656 a 4.59,4.59 0 0 1 1.008,-0.576 c 0.72,-0.216 1.584,-0.36 2.304,0 0.648,0.36 1.008,0.936 1.008,1.656 0,0.144 0,0.432 0.216,0.432 l 0.072,0.144 z m 2.304,1.944 c 0,0 0,0.072 0.072,0.072 v 0.072 c 0.144,0.288 0.072,0.648 -0.144,1.152 -0.288,0.432 -0.792,0.864 -1.512,1.224 -0.792,0.432 -1.368,0.576 -1.872,0.576 -0.504,-0.072 -0.864,-0.216 -1.08,-0.504 v -0.072 c -0.072,0 -0.072,0 -0.072,-0.072 v -0.072 c -0.144,-0.36 -0.072,-0.72 0.144,-1.152 0.216,-0.432 0.72,-0.864 1.44,-1.296 0.792,-0.432 1.44,-0.576 1.944,-0.504 0.504,0.072 0.864,0.216 1.008,0.504 h 0.072 z m 0.288,-0.144 c -0.288,-0.504 -0.792,-0.864 -1.44,-0.864 a 3.545,3.545 0 0 0 -2.088,0.432 c -0.72,0.36 -1.224,0.864 -1.584,1.44 -0.288,0.648 -0.36,1.224 -0.072,1.728 0.288,0.576 0.792,0.864 1.512,0.936 0.72,0.072 1.368,-0.072 2.088,-0.432 0.648,-0.432 1.152,-0.864 1.512,-1.512 0.36,-0.576 0.36,-1.152 0.072,-1.728 z m -3.024,5.832 4.32,-2.664 0.432,0.648 0.144,0.288 c 0.072,0.144 0.072,0.36 0.072,0.576 0,0.288 -0.144,0.576 -0.36,0.936 -0.144,0.288 -0.576,0.648 -1.152,1.008 -0.576,0.36 -1.08,0.576 -1.512,0.576 -0.432,0 -0.72,-0.072 -0.936,-0.216 -0.216,-0.072 -0.288,-0.144 -0.36,-0.288 -0.144,-0.072 -0.216,-0.144 -0.216,-0.216 z m 4.176,-3.528 -0.216,0.144 c 0.072,0.072 0,0.216 -0.072,0.288 -0.072,0.144 -0.144,0.216 -0.288,0.36 l -3.312,1.944 c -0.144,0.144 -0.288,0.216 -0.432,0.216 -0.144,0 -0.216,0 -0.288,-0.144 l -0.288,0.144 0.936,1.44 c 0,0.144 0.144,0.216 0.216,0.36 0.144,0.144 0.288,0.288 0.504,0.432 0.288,0.144 0.72,0.216 1.152,0.216 0.432,0 1.008,-0.144 1.656,-0.576 0.72,-0.432 1.224,-0.864 1.368,-1.368 0.216,-0.504 0.288,-0.936 0.216,-1.368 0,-0.144 -0.072,-0.216 -0.072,-0.36 a 0.546,0.546 0 0 1 -0.144,-0.288 z m 1.224,5.04 -0.144,-0.216 1.296,-1.008 0.288,0.432 z m 2.016,2.592 -0.144,-0.144 c 0.144,-0.216 0.288,-0.36 0.36,-0.504 0.072,-0.144 0.144,-0.288 0.144,-0.36 0.072,-0.216 0.072,-0.36 0.072,-0.432 -0.072,-0.144 -0.072,-0.216 -0.144,-0.288 -0.144,-0.144 -0.288,-0.288 -0.504,-0.216 -0.216,0 -0.432,0.072 -0.648,0.216 -0.216,0.144 -0.36,0.288 -0.36,0.504 -0.072,0.144 -0.072,0.288 -0.072,0.504 v 0.144 c 0.072,0.072 0.072,0.144 0.072,0.216 0,0.072 0,0.144 0.072,0.216 v 0.36 c 0,0.216 0,0.432 -0.144,0.72 -0.072,0.288 -0.288,0.504 -0.648,0.72 l -0.072,0.072 c -0.36,0.216 -0.72,0.36 -1.152,0.36 -0.432,0 -0.72,-0.144 -0.936,-0.432 0,0 -0.072,-0.144 -0.144,-0.216 0,-0.144 -0.072,-0.288 -0.072,-0.432 -0.072,0 -0.072,-0.072 -0.072,-0.072 v -0.072 -0.072 l -0.072,-0.072 v -0.072 c -0.072,0 -0.072,-0.072 -0.144,-0.072 h -0.144 l -0.144,-0.144 1.44,-1.008 0.144,0.144 c -0.288,0.36 -0.504,0.648 -0.576,1.008 -0.144,0.36 -0.072,0.72 0.072,0.936 0.144,0.216 0.36,0.288 0.576,0.288 0.288,0 0.504,-0.072 0.72,-0.216 l 0.072,-0.072 c 0.216,-0.144 0.432,-0.36 0.504,-0.576 0.072,-0.216 0.072,-0.36 0.072,-0.576 0,-0.072 0,-0.144 -0.072,-0.216 v -0.216 c -0.072,-0.072 -0.072,-0.144 -0.072,-0.216 v -0.216 c -0.072,-0.216 0,-0.432 0.072,-0.72 0.144,-0.216 0.36,-0.504 0.648,-0.72 0.36,-0.216 0.648,-0.36 1.008,-0.36 0.36,0 0.648,0.144 0.864,0.504 0.072,0 0.072,0 0.072,0.072 0,0 0.072,0 0.072,0.072 0,0.072 0,0.144 0.072,0.216 v 0.576 h 0.216 l 0.072,0.144 z m 3.816,2.952 c -0.144,-0.144 -0.216,-0.144 -0.36,-0.072 -0.144,0 -0.288,0.072 -0.432,0.216 l -2.952,2.376 c -0.144,0.144 -0.216,0.216 -0.288,0.36 -0.072,0.144 -0.072,0.216 0,0.36 l -0.216,0.144 -0.792,-0.936 0.216,-0.144 c 0.144,0.072 0.216,0.144 0.36,0.072 0.144,0 0.288,-0.072 0.432,-0.216 l 2.952,-2.448 c 0.144,-0.072 0.288,-0.216 0.288,-0.36 a 0.219,0.219 0 0 0 0,-0.288 l 0.216,-0.216 0.792,0.936 z m -3.528,3.888 c 0.072,0.072 0.216,0.144 0.288,0.072 0.144,-0.072 0.288,-0.144 0.36,-0.216 l 2.952,-2.592 c 0.144,-0.072 0.216,-0.216 0.288,-0.36 0.072,-0.144 0.072,-0.216 0,-0.36 l 0.216,-0.144 0.504,0.648 -1.656,4.752 2.592,-2.304 c 0.072,0 0.072,-0.072 0.144,-0.072 0,0 0,-0.072 0.072,-0.072 0.072,-0.072 0.072,-0.144 0.144,-0.216 0,-0.144 0,-0.216 -0.072,-0.288 l 0.216,-0.216 0.576,0.72 -0.216,0.144 c -0.072,-0.072 -0.216,-0.072 -0.36,-0.072 -0.072,0.072 -0.216,0.144 -0.288,0.216 l -3.672,3.168 -0.072,-0.072 1.872,-5.4 -3.096,2.664 c 0,0.072 0,0.072 -0.072,0.072 0,0.072 -0.072,0.072 -0.072,0.144 -0.072,0.072 -0.072,0.144 -0.072,0.216 -0.072,0.072 -0.072,0.144 0,0.216 l -0.216,0.216 -0.576,-0.72 z M 40.104,162 c -0.072,-0.072 -0.216,-0.144 -0.288,-0.072 a 1.506,1.506 0 0 0 -0.432,0.288 l -1.152,1.224 1.656,1.656 1.224,-1.224 c 0.144,-0.144 0.216,-0.288 0.288,-0.432 0,-0.072 0,-0.216 -0.072,-0.288 l 0.216,-0.216 0.792,0.864 -0.144,0.144 c -0.072,-0.072 -0.216,-0.072 -0.288,-0.072 -0.072,0.072 -0.144,0.072 -0.216,0.144 -0.072,0 -0.072,0.072 -0.144,0.072 0,0.072 -0.072,0.072 -0.072,0.144 l -2.664,2.736 c -0.144,0.144 -0.216,0.288 -0.288,0.36 -0.072,0.144 0,0.288 0.072,0.36 l -0.216,0.216 -0.864,-0.864 0.216,-0.216 c 0.144,0.072 0.216,0.144 0.36,0.072 0.072,-0.072 0.216,-0.144 0.36,-0.288 l 1.224,-1.296 -1.656,-1.656 -1.296,1.296 c -0.144,0.144 -0.216,0.288 -0.216,0.432 a 0.219,0.219 0 0 0 0,0.288 l -0.144,0.216 -0.864,-0.792 0.216,-0.216 c 0.072,0.072 0.216,0.072 0.288,0.072 0.144,-0.072 0.216,-0.144 0.36,-0.288 l 2.664,-2.808 c 0.144,-0.144 0.288,-0.216 0.288,-0.36 0.072,-0.144 0.072,-0.216 -0.072,-0.36 l 0.216,-0.144 0.864,0.792 z m 3.384,3.096 a 0.219,0.219 0 0 0 -0.288,0 c -0.144,0.072 -0.288,0.216 -0.36,0.288 l -2.592,2.88 c -0.072,0.144 -0.216,0.288 -0.216,0.36 -0.072,0.144 0,0.288 0.072,0.36 l -0.216,0.216 -0.864,-0.792 0.144,-0.216 c 0.144,0.072 0.288,0.072 0.36,0.072 0.144,-0.072 0.216,-0.216 0.36,-0.288 l 2.592,-2.88 0.216,-0.432 c 0.072,-0.144 0,-0.216 -0.072,-0.288 l 0.216,-0.216 0.864,0.792 z m 1.584,2.952 -0.144,-0.144 c 0.072,-0.216 0.144,-0.432 0.144,-0.576 0.072,-0.144 0.072,-0.288 0.072,-0.36 0,-0.216 0,-0.36 -0.072,-0.504 C 45,166.392 45,166.32 44.928,166.32 c -0.216,-0.144 -0.36,-0.216 -0.576,-0.144 -0.216,0.072 -0.432,0.144 -0.576,0.36 -0.144,0.216 -0.288,0.36 -0.288,0.576 0,0.216 0.072,0.36 0.144,0.504 0,0.072 0.072,0.144 0.072,0.216 0,0.072 0.072,0.072 0.072,0.144 0.072,0.072 0.072,0.144 0.144,0.216 0,0.072 0.072,0.216 0.072,0.288 0.072,0.216 0.072,0.504 0.072,0.792 a 3.206,3.206 0 0 1 -0.432,0.864 c 0,0 -0.072,0 -0.072,0.072 -0.288,0.288 -0.648,0.504 -1.008,0.648 -0.36,0.144 -0.72,0.072 -1.008,-0.144 -0.072,-0.072 -0.072,-0.144 -0.216,-0.216 -0.072,-0.072 -0.144,-0.216 -0.216,-0.36 v -0.072 l -0.072,-0.072 c 0,-0.072 0,-0.072 -0.072,-0.072 v -0.072 h -0.072 v -0.072 h -0.144 c 0,0 -0.072,0 -0.144,0.072 l -0.144,-0.144 1.152,-1.368 0.144,0.144 c -0.216,0.36 -0.288,0.792 -0.288,1.152 0,0.36 0.072,0.648 0.288,0.792 v 0.072 h 0.072 c 0.144,0.144 0.36,0.144 0.576,0.072 0.288,-0.072 0.504,-0.216 0.648,-0.432 h 0.072 c 0.144,-0.216 0.288,-0.504 0.288,-0.72 0,-0.216 0,-0.36 -0.072,-0.576 -0.072,-0.072 -0.072,-0.144 -0.072,-0.216 l -0.144,-0.144 c 0,-0.072 -0.072,-0.144 -0.072,-0.216 -0.072,-0.072 -0.072,-0.144 -0.072,-0.216 -0.072,-0.216 -0.144,-0.432 -0.072,-0.72 0,-0.288 0.144,-0.576 0.432,-0.864 0.216,-0.288 0.504,-0.504 0.864,-0.576 0.36,-0.144 0.648,-0.072 0.936,0.216 0.072,0 0.072,0 0.072,0.072 0.072,0 0.072,0 0.072,0.072 0.072,0 0.144,0.072 0.144,0.216 0.072,0.072 0.072,0.144 0.072,0.288 v 0.072 h 0.072 v 0.144 h 0.216 l 0.144,0.072 z m 4.392,1.8 c -0.144,-0.072 -0.216,-0.072 -0.36,0 a 1.57,1.57 0 0 0 -0.288,0.36 l -1.008,1.368 1.944,1.368 0.936,-1.44 c 0.144,-0.144 0.216,-0.288 0.216,-0.36 0.072,-0.144 0,-0.216 -0.072,-0.36 l 0.144,-0.216 1.008,0.72 -0.216,0.216 c -0.072,-0.072 -0.144,-0.072 -0.216,-0.072 a 1.036,1.036 0 0 1 -0.216,0.144 l -0.144,0.144 c 0,0.072 -0.072,0.072 -0.072,0.072 l -2.232,3.168 c -0.072,0.144 -0.144,0.288 -0.144,0.432 -0.072,0.144 0,0.216 0.072,0.36 l -0.144,0.216 -1.008,-0.72 0.216,-0.216 a 0.219,0.219 0 0 0 0.288,0 c 0.144,-0.072 0.216,-0.216 0.36,-0.36 l 1.008,-1.44 -1.872,-1.368 -1.08,1.44 c -0.072,0.216 -0.144,0.36 -0.216,0.432 0,0.144 0,0.288 0.144,0.36 l -0.216,0.216 -0.936,-0.72 0.144,-0.216 c 0.144,0.072 0.216,0.072 0.36,0 0.072,-0.072 0.216,-0.144 0.288,-0.288 l 2.232,-3.168 c 0.144,-0.144 0.216,-0.288 0.216,-0.432 0,-0.144 0,-0.216 -0.144,-0.288 l 0.216,-0.288 0.936,0.72 z m 4.896,2.952 c 0.072,0 0.072,0 0.144,0.072 0,0 0.072,0 0.144,0.072 h 0.072 c 0.072,0 0.072,0.072 0.072,0.072 h 0.144 c 0,0.072 0.072,0.072 0.072,0.072 l -0.576,0.936 -0.144,-0.072 c 0.144,-0.288 0.144,-0.504 0.072,-0.648 -0.144,-0.216 -0.288,-0.36 -0.504,-0.432 l -0.864,-0.576 -1.224,1.944 0.576,0.432 h 0.072 l 0.072,0.072 h 0.216 c 0.072,0 0.216,-0.072 0.288,-0.216 l 0.216,0.072 -0.72,1.08 -0.144,-0.144 c 0.072,-0.216 0.144,-0.36 0.072,-0.432 0,-0.072 -0.072,-0.072 -0.216,-0.216 l -0.648,-0.36 -1.224,2.088 1.008,0.648 c 0.216,0.144 0.432,0.216 0.72,0.216 0.216,0 0.432,-0.144 0.648,-0.432 l 0.216,0.072 -0.72,1.008 -2.808,-1.728 0.144,-0.216 c 0.144,0.072 0.216,0.072 0.36,0 a 1.57,1.57 0 0 0 0.288,-0.36 l 2.016,-3.312 c 0.144,-0.144 0.216,-0.288 0.216,-0.432 0,-0.072 0,-0.216 -0.144,-0.288 l 0.144,-0.216 z m 1.656,5.328 -1.584,-0.864 2.088,-1.944 0.072,0.072 z m 1.296,-3.744 -0.072,-0.072 c 0,0.072 0,0.072 -0.072,0.072 h -0.144 c 0,0.072 -0.072,0.072 -0.144,0.072 h -0.144 l -0.144,0.216 c 0,0.072 0,0.072 0.072,0.072 v 0.144 c -0.072,0 -0.072,0 -0.072,0.072 0,0 -0.072,0 -0.144,0.072 l -3.024,2.808 c 0,0.072 -0.072,0.072 -0.144,0.144 0,0 -0.072,0 -0.144,0.072 0,0.072 -0.144,0.072 -0.216,0.144 -0.072,0 -0.144,0 -0.216,-0.072 l -0.144,0.288 0.792,0.432 0.144,-0.216 c -0.072,-0.072 -0.072,-0.144 -0.072,-0.216 v -0.144 c 0,0 0,-0.072 0.072,-0.072 v -0.072 c 0.072,0 0.072,-0.072 0.144,-0.144 l 0.576,-0.504 1.728,1.008 -0.144,0.72 v 0.216 c 0,0 -0.072,0 -0.072,0.072 0,0.072 -0.072,0.072 -0.072,0.144 -0.072,0 -0.144,0.072 -0.216,0 l -0.144,0.288 1.008,0.504 0.072,-0.216 c -0.072,-0.072 -0.072,-0.144 -0.072,-0.288 -0.072,-0.144 0,-0.288 0,-0.432 z m 2.808,1.584 -0.072,0.216 H 59.76 c -0.072,0.072 -0.144,0.072 -0.144,0.216 v 0.072 c -0.072,0 -0.072,0.072 -0.072,0.072 v 0.216 l -0.504,3.96 2.736,-2.808 c 0.072,0 0.072,0 0.072,-0.072 h 0.072 v -0.072 c 0.072,0 0.072,0 0.072,-0.072 h 0.072 v -0.072 a 0.544,0.544 0 0 0 0.072,-0.288 l -0.144,-0.144 -0.072,-0.072 0.144,-0.216 0.864,0.432 -0.072,0.216 c -0.144,0 -0.288,0 -0.36,0.072 -0.144,0.072 -0.216,0.144 -0.36,0.288 0,0 0,0.072 -0.072,0.072 l -3.6,3.6 -0.144,-0.072 0.72,-5.256 v -0.072 -0.144 -0.216 c -0.072,-0.072 -0.072,-0.144 -0.144,-0.144 l 0.144,-0.288 z m 5.184,2.376 h 0.144 c 0.072,0.072 0.072,0.072 0.144,0.072 h 0.072 l 0.072,0.072 h 0.144 c 0.072,0 0.072,0 0.144,0.072 l -0.432,1.008 -0.216,-0.072 c 0.072,-0.36 0.072,-0.576 -0.072,-0.648 a 0.737,0.737 0 0 0 -0.432,-0.36 l -1.008,-0.432 -0.936,2.16 0.72,0.288 h 0.072 c 0.072,0.072 0.144,0.072 0.288,0 0.072,0 0.144,-0.072 0.216,-0.288 l 0.216,0.144 -0.504,1.08 -0.216,-0.072 c 0.072,-0.216 0.072,-0.36 0,-0.432 0,-0.072 -0.072,-0.072 -0.216,-0.144 l -0.648,-0.288 -1.008,2.232 1.152,0.432 c 0.216,0.144 0.504,0.216 0.72,0.144 0.288,0 0.504,-0.144 0.648,-0.504 l 0.144,0.072 -0.504,1.08 -3.024,-1.224 0.072,-0.288 c 0.144,0 0.288,0 0.36,-0.072 0.072,-0.072 0.144,-0.216 0.216,-0.432 l 1.512,-3.528 c 0.072,-0.144 0.144,-0.36 0.144,-0.432 0,-0.144 -0.072,-0.216 -0.216,-0.288 l 0.144,-0.288 z m -0.504,5.688 h 0.072 c 0.072,0 0.144,0 0.288,-0.072 l 0.216,-0.432 1.296,-3.6 c 0.072,-0.216 0.072,-0.36 0.072,-0.504 0,-0.144 -0.072,-0.216 -0.144,-0.288 l 0.072,-0.288 0.792,0.288 0.792,4.968 h 0.072 l 1.152,-3.24 v -0.072 c 0.072,-0.072 0.072,-0.072 0.072,-0.144 v -0.288 c 0,-0.072 -0.072,-0.144 -0.144,-0.216 l 0.072,-0.288 0.864,0.36 -0.144,0.216 c -0.144,0 -0.216,0.072 -0.288,0.144 -0.072,0.072 -0.144,0.216 -0.216,0.36 l -1.656,4.536 -0.144,-0.072 -0.936,-5.616 -1.368,3.888 c 0,0 -0.072,0 -0.072,0.072 v 0.432 c 0,0.072 0.072,0.144 0.144,0.144 l -0.072,0.288 -0.864,-0.36 z m 4.248,2.808 v -0.216 c 0.144,-0.072 0.288,-0.216 0.432,-0.288 0.072,-0.144 0.072,-0.216 0.144,-0.288 h -0.072 l -0.216,-0.216 c 0,-0.072 0,-0.216 0.072,-0.36 V 185.4 c 0.072,-0.072 0.072,-0.144 0.144,-0.144 0.072,-0.072 0.144,-0.072 0.288,-0.072 l 0.072,0.072 c 0.072,0 0.072,0.072 0.144,0.144 0,0.144 0,0.288 -0.072,0.432 -0.072,0.216 -0.144,0.432 -0.36,0.576 -0.144,0.216 -0.288,0.288 -0.432,0.432 H 69.12 Z m 5.112,-1.512 -1.728,-0.504 1.584,-2.376 v 0.072 z m 0.36,-3.96 -0.072,-0.072 -0.072,0.072 c -0.072,0 -0.072,0.072 -0.144,0.072 l -0.072,0.072 h -0.144 c 0,0.072 -0.072,0.072 -0.072,0.072 l -0.072,0.216 c 0,0.072 0.072,0.072 0.072,0.072 v 0.144 c 0,0.072 -0.072,0.072 -0.072,0.144 l -2.304,3.528 c 0,0 -0.072,0 -0.072,0.072 l -0.144,0.144 c -0.072,0.072 -0.144,0.144 -0.216,0.144 -0.072,0.072 -0.072,0.072 -0.144,0.072 l -0.072,0.288 0.864,0.216 0.072,-0.288 a 0.155,0.155 0 0 1 -0.144,-0.144 c 0,0 -0.072,-0.072 -0.072,-0.144 h 0.072 v -0.072 -0.072 c 0,-0.072 0.072,-0.072 0.144,-0.144 l 0.36,-0.648 1.944,0.504 0.072,0.792 v 0.216 c -0.072,0.144 -0.072,0.216 -0.144,0.216 0,0.072 -0.072,0.072 -0.144,0.072 l -0.072,0.288 1.08,0.288 0.072,-0.288 c -0.072,0 -0.144,-0.072 -0.216,-0.216 0,-0.144 -0.072,-0.288 -0.072,-0.504 z m 3.24,1.152 a 0.546,0.546 0 0 0 -0.288,0.144 c -0.072,0.072 -0.144,0.216 -0.144,0.432 l -0.936,4.392 1.224,0.216 a 0.56,0.56 0 0 0 0.576,-0.144 c 0.216,-0.144 0.36,-0.36 0.432,-0.648 h 0.216 l -0.288,1.368 -3.096,-0.72 0.072,-0.216 c 0.144,0 0.216,-0.072 0.288,-0.144 l 0.216,-0.432 0.792,-3.744 c 0.072,-0.216 0.072,-0.36 0,-0.504 0,-0.144 -0.072,-0.216 -0.216,-0.216 l 0.072,-0.288 1.152,0.216 z m 3.528,0.72 c -0.144,0 -0.216,0 -0.288,0.144 -0.072,0.072 -0.144,0.216 -0.144,0.432 l -0.792,4.392 1.296,0.216 c 0.216,0.072 0.432,0 0.576,-0.216 0.144,-0.144 0.288,-0.36 0.432,-0.648 h 0.144 l -0.216,1.368 -3.096,-0.576 0.072,-0.216 a 0.546,0.546 0 0 0 0.288,-0.144 c 0.072,-0.144 0.144,-0.288 0.144,-0.504 l 0.648,-3.744 v -0.504 c 0,-0.072 -0.072,-0.216 -0.216,-0.216 v -0.288 l 1.224,0.216 z m 2.592,1.8 -0.144,-0.072 0.072,-1.656 0.504,0.072 z m 3.384,0.216 h -0.216 c -0.072,-0.288 -0.072,-0.432 -0.144,-0.576 l -0.216,-0.432 c -0.072,-0.144 -0.144,-0.288 -0.288,-0.288 -0.144,-0.072 -0.216,-0.072 -0.216,-0.072 -0.288,-0.072 -0.432,0 -0.576,0.216 -0.144,0.144 -0.216,0.36 -0.288,0.576 0,0.288 0,0.504 0.144,0.648 a 0.868,0.868 0 0 0 0.36,0.36 l 0.144,0.144 c 0.072,0 0.144,0.072 0.144,0.072 0.072,0.072 0.144,0.072 0.288,0.144 0.072,0.072 0.144,0.072 0.216,0.144 0.144,0.144 0.36,0.36 0.432,0.648 0.144,0.216 0.216,0.576 0.144,0.936 v 0.144 c -0.072,0.432 -0.216,0.792 -0.504,1.08 a 1.125,1.125 0 0 1 -0.864,0.432 c -0.072,-0.072 -0.216,-0.072 -0.288,-0.072 l -0.432,-0.216 h -0.072 l -0.072,-0.072 h -0.072 c -0.072,0 -0.072,-0.072 -0.072,-0.072 h -0.072 c -0.072,0 -0.072,0.072 -0.144,0.072 0,0 -0.072,0.072 -0.072,0.144 h -0.216 l 0.216,-1.8 h 0.216 c 0,0.432 0.144,0.864 0.36,1.152 0.216,0.288 0.432,0.504 0.72,0.504 h 0.072 c 0.216,0.072 0.36,-0.072 0.576,-0.216 0.144,-0.216 0.216,-0.432 0.288,-0.72 v -0.072 c 0,-0.288 0,-0.504 -0.144,-0.72 a 0.737,0.737 0 0 0 -0.36,-0.432 c -0.072,-0.072 -0.144,-0.072 -0.216,-0.144 -0.072,-0.072 -0.072,-0.072 -0.144,-0.072 -0.072,-0.072 -0.144,-0.072 -0.216,-0.144 -0.072,0 -0.144,-0.072 -0.216,-0.144 a 1.988,1.988 0 0 1 -0.432,-0.576 c -0.144,-0.216 -0.144,-0.504 -0.144,-0.936 0.072,-0.36 0.216,-0.72 0.432,-1.008 0.216,-0.216 0.576,-0.36 0.936,-0.288 H 86.4 c 0.144,0 0.216,0.072 0.288,0.144 0.072,0 0.144,0.072 0.216,0.216 h 0.072 c 0,0 0,0.072 0.072,0.072 h 0.072 c 0.072,0 0.072,0 0.072,-0.072 h 0.216 z m 4.248,1.512 0.072,-2.376 h 0.792 c 0.072,0 0.144,0 0.216,0.072 0.216,0 0.36,0.144 0.432,0.288 0.144,0.144 0.216,0.432 0.216,0.864 0,0.36 -0.072,0.576 -0.216,0.792 a 1.506,1.506 0 0 1 -0.432,0.288 c -0.072,0.072 -0.144,0.072 -0.288,0.072 z m -0.792,-2.736 v 0.288 c 0.072,0 0.144,0 0.216,0.072 0,0 0.072,0.072 0.072,0.144 v 0.072 c 0,0 0,0.072 0.072,0.072 v 0.288 l -0.144,3.816 c 0,0.216 0,0.36 -0.072,0.432 -0.072,0.144 -0.144,0.216 -0.288,0.216 v 0.288 l 1.152,0.072 v -0.288 C 91.656,189.432 91.512,189.36 91.512,189.288 91.44,189.144 91.44,189 91.44,188.856 l 0.072,-1.8 0.864,0.072 1.08,2.664 0.72,0.072 v -0.288 c -0.072,0 -0.144,-0.072 -0.216,-0.144 -0.072,-0.072 -0.144,-0.144 -0.144,-0.288 -0.072,0 -0.072,-0.072 -0.072,-0.072 V 189 l -0.792,-2.016 h 0.144 L 93.6,186.48 c 0.144,-0.216 0.216,-0.504 0.216,-0.936 0,-0.576 -0.144,-0.936 -0.432,-1.152 -0.288,-0.216 -0.648,-0.288 -1.08,-0.36 z m 5.184,0.36 c -0.144,0 -0.216,0.072 -0.288,0.216 -0.072,0.144 -0.072,0.288 -0.072,0.432 v 3.816 c 0,0.216 0.072,0.36 0.144,0.504 0,0.072 0.072,0.144 0.216,0.144 v 0.288 h -1.152 v -0.216 a 0.994,0.994 0 0 0 0.288,-0.216 c 0,-0.144 0.072,-0.288 0.072,-0.504 L 95.04,185.04 c 0,-0.216 0,-0.36 -0.072,-0.432 -0.072,-0.144 -0.144,-0.216 -0.288,-0.216 v -0.288 h 1.224 z m 3.96,0.936 -0.216,0.072 c -0.072,-0.36 -0.216,-0.576 -0.36,-0.72 -0.144,-0.144 -0.288,-0.288 -0.432,-0.288 -0.072,-0.072 -0.216,-0.072 -0.288,-0.144 h -0.216 c -0.072,0 -0.144,0 -0.216,0.072 h -0.144 c -0.288,0.144 -0.504,0.432 -0.72,0.792 -0.216,0.36 -0.288,0.936 -0.216,1.728 v 0.504 c 0.072,0.216 0.072,0.36 0.144,0.576 0.072,0.432 0.288,0.792 0.504,1.08 0.216,0.36 0.576,0.504 1.08,0.504 0.288,-0.072 0.504,-0.144 0.72,-0.36 0.216,-0.216 0.288,-0.504 0.288,-0.864 -0.072,-0.216 -0.072,-0.36 -0.144,-0.432 0,-0.144 -0.072,-0.144 -0.144,-0.216 H 99.432 99.36 v -0.288 l 0.864,-0.072 0.072,2.016 c -0.216,0.144 -0.432,0.216 -0.648,0.288 -0.144,0.072 -0.288,0.144 -0.504,0.144 -0.072,0 -0.072,0.072 -0.144,0.072 h -0.216 c -0.36,0 -0.576,0 -0.792,-0.072 -0.216,-0.144 -0.432,-0.216 -0.576,-0.288 -0.072,-0.072 -0.144,-0.144 -0.144,-0.216 a 0.155,0.155 0 0 1 -0.144,-0.144 c -0.216,-0.216 -0.36,-0.576 -0.504,-0.936 -0.072,-0.432 -0.144,-0.864 -0.144,-1.296 v -0.72 c 0.072,-0.288 0.072,-0.432 0.144,-0.648 0.072,-0.144 0.072,-0.216 0.144,-0.288 0,-0.144 0.072,-0.144 0.072,-0.216 0.144,-0.288 0.36,-0.576 0.648,-0.72 0.216,-0.144 0.504,-0.288 0.792,-0.288 h 0.504 c 0.144,0.072 0.216,0.072 0.288,0.144 h 0.072 l 0.072,0.072 h 0.072 c 0.072,0 0.072,0 0.144,0.072 h 0.072 v -0.072 h 0.072 l 0.072,-0.072 h 0.144 z m 1.872,-1.296 c -0.144,0.072 -0.216,0.144 -0.216,0.288 -0.072,0.072 -0.072,0.288 -0.072,0.432 l 0.216,1.728 2.304,-0.288 -0.144,-1.656 c -0.072,-0.216 -0.072,-0.36 -0.144,-0.432 -0.072,-0.144 -0.144,-0.216 -0.288,-0.216 V 183.6 l 1.152,-0.072 0.072,0.288 c -0.144,0 -0.216,0.072 -0.216,0.144 -0.072,0.072 -0.072,0.144 -0.072,0.216 -0.072,0.072 -0.072,0.144 -0.072,0.144 a 0.223,0.223 0 0 1 0.072,0.144 l 0.36,3.816 c 0,0.216 0.072,0.36 0.144,0.504 0,0.072 0.144,0.144 0.288,0.144 v 0.288 l -1.152,0.072 -0.072,-0.216 a 0.562,0.562 0 0 0 0.288,-0.288 v -0.432 l -0.144,-1.8 -2.376,0.216 0.216,1.8 c 0,0.216 0,0.36 0.072,0.504 0.072,0.072 0.144,0.144 0.288,0.144 l 0.072,0.288 -1.224,0.072 v -0.216 c 0.144,-0.072 0.216,-0.144 0.216,-0.288 0.072,-0.072 0.072,-0.216 0.072,-0.432 l -0.432,-3.816 c 0,-0.216 0,-0.36 -0.072,-0.504 -0.072,-0.072 -0.144,-0.144 -0.288,-0.144 l -0.072,-0.288 1.224,-0.072 z m 3.168,-0.648 1.368,-0.144 1.152,-0.144 1.224,-0.288 0.144,1.08 -0.216,0.072 v -0.216 c -0.072,-0.144 -0.144,-0.216 -0.288,-0.36 -0.072,-0.072 -0.216,-0.072 -0.432,-0.072 l -0.792,0.144 0.72,4.392 c 0,0.216 0.072,0.36 0.072,0.432 0.072,0.144 0.216,0.144 0.36,0.144 v 0.288 l -1.152,0.216 -0.072,-0.288 a 0.994,0.994 0 0 0 0.288,-0.216 v -0.504 l -0.72,-4.392 -0.792,0.144 c -0.216,0 -0.36,0.072 -0.432,0.288 -0.072,0.144 -0.072,0.288 -0.072,0.504 h -0.216 z m 8.136,0.36 h -0.072 l -0.432,-0.792 v -0.072 h -0.072 v -0.144 c -0.072,0 -0.072,-0.072 -0.072,-0.072 0,-0.144 0,-0.216 0.072,-0.288 0.072,0 0.144,-0.072 0.216,-0.072 l 0.144,-0.072 h 0.072 c 0,0 0.072,0 0.072,0.072 0.072,0 0.072,0.072 0.144,0.144 v 0.288 z m 2.232,-2.376 -0.936,0.288 0.072,0.216 c 0.072,0 0.144,0 0.216,0.072 0.072,0.072 0.072,0.144 0.144,0.216 v 0.504 l -0.216,3.744 -1.296,-2.232 0.072,-1.296 v -0.072 -0.072 c 0,-0.216 0.072,-0.36 0.144,-0.432 0,-0.144 0.072,-0.216 0.144,-0.216 l -0.072,-0.288 -2.16,0.504 0.072,0.288 c 0.072,0 0.216,0 0.288,0.072 a 0.994,0.994 0 0 1 0.216,0.288 l 1.008,1.8 -0.144,2.016 -1.944,-3.312 c 0,-0.144 -0.072,-0.216 -0.072,-0.216 -0.072,-0.072 -0.072,-0.144 -0.072,-0.144 v -0.216 c 0.072,-0.072 0.072,-0.144 0.144,-0.144 0,0 0.072,0 0.072,-0.072 l -0.072,-0.216 -1.224,0.288 v 0.288 c 0.144,-0.072 0.288,0 0.36,0.072 0.072,0.072 0.216,0.144 0.216,0.288 h 0.072 v 0.072 l 2.52,4.464 0.216,-0.072 0.144,-2.664 1.368,2.376 0.144,-0.072 0.36,-5.04 c 0,-0.288 0.072,-0.576 0.144,-0.648 0.072,-0.072 0.072,-0.144 0.144,-0.144 z m 1.44,-0.144 c -0.144,0.072 -0.216,0.144 -0.216,0.288 0,0.144 0,0.288 0.072,0.432 l 1.08,3.744 a 0.55,0.55 0 0 0 0.144,0.36 c 0.072,0.144 0.216,0.144 0.36,0.144 l 0.072,0.288 -1.152,0.288 -0.072,-0.216 c 0.144,-0.072 0.216,-0.216 0.216,-0.288 0,-0.144 0,-0.288 -0.072,-0.504 l -1.08,-3.672 c 0,-0.216 -0.072,-0.288 -0.216,-0.432 -0.072,-0.072 -0.144,-0.144 -0.288,-0.072 l -0.072,-0.288 1.152,-0.36 z m 0.288,-0.432 1.368,-0.36 1.08,-0.36 1.152,-0.432 0.36,1.008 -0.216,0.072 c 0,0 0,-0.072 -0.072,-0.072 v -0.072 a 0.562,0.562 0 0 0 -0.288,-0.288 c -0.144,-0.072 -0.288,-0.072 -0.432,-0.072 l -0.792,0.288 1.368,4.248 c 0.072,0.216 0.144,0.36 0.216,0.432 0.072,0.072 0.216,0.144 0.288,0.072 l 0.144,0.288 -1.152,0.36 -0.072,-0.288 c 0.072,0 0.144,-0.144 0.216,-0.216 0,-0.144 -0.072,-0.288 -0.144,-0.504 l -1.368,-4.248 -0.792,0.288 c -0.216,0.072 -0.288,0.144 -0.36,0.36 v 0.504 l -0.216,0.072 z m 5.112,-1.368 c -0.072,0.072 -0.144,0.144 -0.144,0.288 0,0.144 0,0.288 0.072,0.432 l 0.648,1.584 2.16,-0.864 -0.648,-1.584 c -0.072,-0.144 -0.144,-0.288 -0.216,-0.36 -0.072,-0.072 -0.144,-0.144 -0.288,-0.072 l -0.144,-0.288 1.152,-0.432 0.072,0.288 a 0.155,0.155 0 0 0 -0.144,0.144 v 0.432 c 0.072,0.072 0.072,0.072 0.072,0.144 l 1.368,3.6 c 0.072,0.144 0.144,0.288 0.216,0.36 0.144,0.144 0.216,0.144 0.36,0.072 l 0.144,0.288 -1.152,0.432 -0.072,-0.288 c 0.072,-0.072 0.144,-0.144 0.144,-0.288 0,-0.072 0,-0.216 -0.072,-0.432 l -0.648,-1.656 -2.232,0.792 0.648,1.728 c 0.072,0.216 0.144,0.288 0.288,0.432 0.072,0.072 0.144,0.072 0.288,0.072 l 0.144,0.216 -1.152,0.432 -0.072,-0.216 c 0.072,-0.072 0.144,-0.144 0.144,-0.288 0,-0.144 0,-0.288 -0.072,-0.432 l -1.368,-3.6 c -0.072,-0.216 -0.216,-0.36 -0.288,-0.432 -0.072,-0.072 -0.144,-0.144 -0.288,-0.072 l -0.144,-0.288 1.152,-0.432 z m 4.752,-2.304 1.296,-0.576 1.008,-0.504 1.08,-0.576 0.504,1.008 -0.216,0.072 v -0.072 l -0.072,-0.072 c -0.072,-0.144 -0.216,-0.216 -0.36,-0.288 -0.144,-0.072 -0.288,-0.072 -0.432,0.072 l -0.72,0.288 1.944,4.032 c 0.072,0.216 0.144,0.36 0.288,0.432 0.072,0.072 0.144,0.072 0.288,0.072 l 0.144,0.216 -1.08,0.504 -0.144,-0.216 c 0.144,-0.072 0.216,-0.216 0.216,-0.288 0,-0.144 -0.072,-0.288 -0.144,-0.504 l -1.944,-3.96 -0.792,0.36 c -0.216,0.072 -0.288,0.216 -0.288,0.36 0,0.216 0,0.36 0.072,0.504 l -0.216,0.144 z m 4.896,-2.088 c -0.144,0.072 -0.144,0.144 -0.144,0.288 0,0.144 0.072,0.288 0.144,0.432 l 0.864,1.512 2.016,-1.152 -0.792,-1.512 c -0.144,-0.144 -0.216,-0.288 -0.288,-0.36 -0.144,-0.072 -0.216,-0.072 -0.36,0 l -0.144,-0.288 1.08,-0.576 0.072,0.288 c -0.072,0.072 -0.072,0.144 -0.144,0.216 0,0.072 0.072,0.144 0.072,0.288 0,0 0,0.072 0.072,0.072 0,0.072 0,0.144 0.072,0.144 l 1.872,3.384 c 0.072,0.144 0.144,0.288 0.288,0.36 a 0.219,0.219 0 0 0 0.288,0 l 0.144,0.288 -1.008,0.576 -0.144,-0.288 c 0.072,-0.072 0.144,-0.144 0.144,-0.288 -0.072,-0.144 -0.072,-0.288 -0.216,-0.432 l -0.864,-1.584 -2.016,1.152 0.864,1.584 c 0.072,0.144 0.216,0.288 0.288,0.36 0.072,0.072 0.216,0.072 0.36,0.072 l 0.072,0.216 -1.008,0.576 -0.144,-0.216 c 0.144,-0.072 0.144,-0.216 0.144,-0.36 0,-0.072 -0.072,-0.216 -0.144,-0.432 l -1.872,-3.312 c -0.072,-0.216 -0.216,-0.288 -0.288,-0.432 -0.072,-0.072 -0.216,-0.072 -0.36,0 l -0.144,-0.216 1.08,-0.576 z m 4.752,-3.168 c 0,0 0.072,0 0.144,-0.072 0,0 0.072,-0.072 0.144,-0.072 0,-0.072 0.072,-0.072 0.072,-0.072 0,0 0,-0.072 0.072,-0.072 0,-0.072 0.072,-0.072 0.072,-0.072 l 0.072,-0.072 0.576,0.936 -0.144,0.072 c -0.216,-0.216 -0.36,-0.288 -0.576,-0.288 -0.144,0 -0.36,0.072 -0.576,0.216 l -0.864,0.576 1.224,1.944 0.576,-0.36 c 0.072,0 0.072,-0.072 0.072,-0.072 h 0.072 c 0.072,-0.072 0.072,-0.144 0.144,-0.216 0,-0.072 0,-0.216 -0.072,-0.36 l 0.144,-0.072 0.648,1.008 -0.144,0.072 c -0.216,-0.144 -0.288,-0.216 -0.36,-0.216 a 0.546,0.546 0 0 0 -0.288,0.144 l -0.648,0.36 1.296,2.016 1.008,-0.576 c 0.216,-0.144 0.432,-0.36 0.576,-0.576 0.144,-0.216 0.072,-0.504 -0.072,-0.792 l 0.144,-0.144 0.576,1.08 -2.736,1.8 -0.216,-0.288 c 0.144,-0.072 0.144,-0.144 0.144,-0.288 0,-0.144 -0.072,-0.288 -0.144,-0.432 l -2.088,-3.24 c -0.072,-0.216 -0.216,-0.288 -0.288,-0.36 -0.144,-0.072 -0.216,-0.072 -0.36,-0.072 l -0.144,-0.216 z m 6.192,-2.16 -0.72,-0.576 h -0.072 c -0.072,-0.072 -0.072,-0.072 -0.144,-0.072 0,-0.072 -0.072,-0.072 -0.072,-0.144 -0.072,-0.072 -0.072,-0.144 -0.072,-0.216 l 0.216,-0.216 0.072,-0.072 h 0.072 c 0.072,-0.072 0.072,-0.072 0.144,-0.072 0,0.072 0.072,0.072 0.144,0.144 0,0 0,0.072 0.072,0.072 v 0.144 z m 1.152,-3.096 -0.792,0.648 0.144,0.216 V 167.4 h 0.288 c 0.072,0 0.144,0.072 0.216,0.144 v 0.072 c 0.072,0.072 0.072,0.072 0.072,0.144 v 0.072 h 0.072 v 0.144 l 1.368,3.528 h -0.072 l -2.016,-1.512 -0.504,-1.224 v -0.072 -0.072 c -0.072,-0.144 -0.144,-0.288 -0.144,-0.432 0,-0.144 0.072,-0.216 0.144,-0.288 l -0.216,-0.216 -1.8,1.368 0.216,0.216 c 0.072,-0.072 0.144,-0.072 0.288,-0.072 0.072,0.072 0.216,0.144 0.288,0.216 l 1.656,1.224 0.72,1.872 -3.096,-2.232 c -0.072,-0.072 -0.144,-0.144 -0.216,-0.144 0,-0.072 -0.072,-0.072 -0.072,-0.144 -0.072,-0.072 -0.072,-0.144 -0.072,-0.216 v -0.144 h 0.072 v -0.072 l -0.144,-0.216 -1.008,0.792 0.144,0.216 c 0.072,-0.072 0.216,-0.072 0.36,-0.072 0.072,0.072 0.216,0.144 0.288,0.216 h 0.072 l 4.176,3.096 0.144,-0.144 -1.008,-2.52 h 0.072 l 2.16,1.584 0.144,-0.072 -1.728,-4.752 c -0.144,-0.288 -0.216,-0.504 -0.144,-0.648 0,-0.072 0,-0.144 0.072,-0.144 z m 1.8,-1.224 v -0.072 h 0.072 c 0.288,-0.216 0.648,-0.216 1.152,-0.144 0.504,0.144 1.008,0.576 1.584,1.224 0.576,0.648 0.864,1.224 0.936,1.728 0.072,0.504 0,0.864 -0.288,1.08 v 0.072 l -0.072,0.072 h -0.072 c -0.288,0.216 -0.648,0.288 -1.152,0.144 -0.504,-0.144 -1.008,-0.504 -1.584,-1.152 -0.576,-0.648 -0.864,-1.224 -0.936,-1.728 -0.072,-0.504 0.072,-0.936 0.288,-1.152 v -0.072 z m -0.216,-0.288 a 1.975,1.975 0 0 0 -0.576,1.656 c 0.144,0.72 0.432,1.368 0.936,1.944 0.504,0.576 1.08,0.936 1.8,1.152 0.648,0.216 1.224,0.072 1.656,-0.288 0.504,-0.432 0.648,-0.936 0.576,-1.656 -0.072,-0.72 -0.432,-1.368 -0.936,-1.944 a 3.857,3.857 0 0 0 -1.728,-1.152 c -0.72,-0.216 -1.296,-0.072 -1.728,0.288 z m 4.464,-0.216 -1.656,-1.728 0.432,-0.432 c 0,-0.072 0.072,-0.072 0.144,-0.144 0.072,-0.072 0.144,-0.072 0.216,-0.144 0.144,-0.072 0.288,-0.144 0.504,-0.072 0.216,0 0.432,0.144 0.72,0.432 0.288,0.288 0.36,0.504 0.432,0.72 0,0.216 0,0.36 -0.072,0.504 0,0.144 -0.072,0.216 -0.144,0.288 l -0.144,0.144 z m -2.52,-1.368 0.216,0.216 c 0.072,-0.072 0.144,-0.072 0.144,-0.072 h 0.216 c 0,0 0.072,0 0.072,0.072 h 0.072 c 0,0.072 0.072,0.072 0.072,0.072 0,0.072 0.072,0.072 0.072,0.072 0,0 0,0.072 0.072,0.072 l 2.664,2.736 c 0.072,0.144 0.216,0.288 0.216,0.36 0.072,0.144 0.072,0.216 0,0.36 l 0.144,0.216 0.864,-0.864 -0.144,-0.144 c -0.144,0.072 -0.288,0.072 -0.36,0 -0.144,0 -0.288,-0.144 -0.36,-0.288 l -1.224,-1.224 0.648,-0.648 2.664,1.152 0.576,-0.504 -0.216,-0.216 c -0.072,0.072 -0.144,0.072 -0.288,0.072 -0.072,0 -0.216,0 -0.288,-0.072 h -0.072 c -0.072,0 -0.072,-0.072 -0.144,-0.072 l -1.944,-0.792 0.072,-0.072 v -0.072 a 0.999,0.999 0 0 0 0,-0.648 1.811,1.811 0 0 0 -0.504,-0.864 c -0.36,-0.432 -0.72,-0.576 -1.08,-0.504 a 2,2 0 0 0 -1.08,0.576 z m 3.888,-3.456 c -0.072,0.072 -0.144,0.216 -0.072,0.288 0.072,0.144 0.144,0.288 0.288,0.432 l 3.24,3.024 0.864,-0.936 a 0.818,0.818 0 0 0 0.216,-0.576 c -0.072,-0.288 -0.216,-0.504 -0.36,-0.72 l 0.144,-0.144 0.936,0.936 -2.088,2.304 -0.216,-0.216 c 0.072,-0.072 0.072,-0.216 0,-0.36 0,-0.072 -0.144,-0.216 -0.288,-0.36 l -2.808,-2.592 c -0.144,-0.144 -0.216,-0.216 -0.36,-0.288 -0.144,-0.072 -0.216,0 -0.36,0.072 l -0.144,-0.216 0.792,-0.864 z m 6.048,0.936 -3.888,-3.312 0.504,-0.576 c 0.072,0 0.144,-0.072 0.216,-0.216 0.144,-0.072 0.36,-0.216 0.576,-0.288 0.216,-0.072 0.576,0 0.936,0.072 0.432,0.072 0.864,0.36 1.368,0.792 0.576,0.432 0.864,0.864 1.008,1.224 0.144,0.432 0.216,0.72 0.144,1.008 -0.072,0.144 -0.072,0.288 -0.144,0.432 a 0.994,0.994 0 0 1 -0.216,0.288 z m -4.68,-2.88 0.216,0.216 c 0.144,-0.144 0.216,-0.144 0.36,-0.144 0.144,0.072 0.216,0.144 0.432,0.288 l 2.88,2.448 0.36,0.36 c 0,0.144 0,0.288 -0.072,0.36 l 0.216,0.216 1.08,-1.368 c 0.072,-0.072 0.216,-0.144 0.288,-0.36 0.072,-0.144 0.144,-0.36 0.216,-0.576 0.072,-0.36 0.072,-0.72 -0.072,-1.152 -0.144,-0.432 -0.504,-0.864 -1.08,-1.368 -0.72,-0.576 -1.296,-0.864 -1.8,-0.936 -0.504,0 -1.008,0.072 -1.296,0.288 -0.144,0.072 -0.216,0.144 -0.36,0.216 l -0.216,0.216 z m 7.056,-0.72 c 0.072,-0.072 0.144,-0.072 0.216,-0.072 0.072,0 0.144,0.072 0.216,0.144 0.144,0.072 0.216,0.144 0.216,0.288 v 0.216 c -0.072,0.072 -0.144,0.072 -0.216,0.072 h -0.216 l -0.072,-0.072 h -0.072 v -0.072 c -0.072,0 -0.072,-0.072 -0.072,-0.072 -0.072,-0.072 -0.072,-0.144 -0.072,-0.216 -0.072,-0.072 0,-0.072 0,-0.144 z"
       id="path6"
       style="fill:#dcdde1;fill-opacity:1"
       inkscape:connector-curvature="0" />
  </g>
</svg>
